<?xml version="1.0" encoding="UTF-8" standalone="no"?>
<svg
   width="297mm"
   height="210mm"
   viewBox="0 0 297 210"
   version="1.1"
   id="svg8"
   inkscape:version="1.4 (e7c3feb, 2024-10-09)"
   sodipodi:docname="open-models-open-source-relation.svg"
   inkscape:export-filename="/home/abcsxyz/Documents/Base/content/models/open-models-open-source-relation.png"
   inkscape:export-xdpi="300.23001"
   inkscape:export-ydpi="300.23001"
   xmlns:inkscape="http://www.inkscape.org/namespaces/inkscape"
   xmlns:sodipodi="http://sodipodi.sourceforge.net/DTD/sodipodi-0.dtd"
   xmlns="http://www.w3.org/2000/svg"
   xmlns:svg="http://www.w3.org/2000/svg"
   xmlns:rdf="http://www.w3.org/1999/02/22-rdf-syntax-ns#"
   xmlns:cc="http://creativecommons.org/ns#"
   xmlns:dc="http://purl.org/dc/elements/1.1/">
  <defs
     id="defs2">
    <marker
       style="overflow:visible;"
       id="Arrow1Lend"
       refX="0.0"
       refY="0.0"
       orient="auto"
       inkscape:stockid="Arrow1Lend"
       inkscape:isstock="true">
      <path
         transform="scale(0.8) rotate(180) translate(12.5,0)"
         style="fill-rule:evenodd;stroke:#000000;stroke-width:1pt;stroke-opacity:1;fill:#000000;fill-opacity:1"
         d="M 0.0,0.0 L 5.0,-5.0 L -12.5,0.0 L 5.0,5.0 L 0.0,0.0 z "
         id="path2127" />
    </marker>
    <marker
       style="overflow:visible"
       id="Arrow1Lstart"
       refX="0.0"
       refY="0.0"
       orient="auto"
       inkscape:stockid="Arrow1Lstart"
       inkscape:isstock="true">
      <path
         transform="scale(0.8) translate(12.5,0)"
         style="fill-rule:evenodd;stroke:#000000;stroke-width:1pt;stroke-opacity:1;fill:#000000;fill-opacity:1"
         d="M 0.0,0.0 L 5.0,-5.0 L -12.5,0.0 L 5.0,5.0 L 0.0,0.0 z "
         id="path2124" />
    </marker>
    <inkscape:path-effect
       effect="skeletal"
       id="path-effect2118"
       is_visible="true"
       lpeversion="1"
       pattern="m 178.897,58.97966 a 30.396999,12.536 0 0 1 -30.397,12.536 30.396999,12.536 0 0 1 -30.397,-12.536 30.396999,12.536 0 0 1 30.397,-12.536 30.396999,12.536 0 0 1 30.397,12.536 z"
       copytype="single_stretched"
       prop_scale="1"
       scale_y_rel="false"
       spacing="0"
       normal_offset="0"
       tang_offset="0"
       prop_units="false"
       vertical_pattern="false"
       hide_knot="false"
       fuse_tolerance="0" />
    <inkscape:path-effect
       effect="skeletal"
       id="path-effect2104"
       is_visible="true"
       lpeversion="1"
       pattern="m 178.897,58.97966 a 30.396999,12.536 0 0 1 -30.397,12.536 30.396999,12.536 0 0 1 -30.397,-12.536 30.396999,12.536 0 0 1 30.397,-12.536 30.396999,12.536 0 0 1 30.397,12.536 z"
       copytype="single_stretched"
       prop_scale="1"
       scale_y_rel="false"
       spacing="0"
       normal_offset="0"
       tang_offset="0"
       prop_units="false"
       vertical_pattern="false"
       hide_knot="false"
       fuse_tolerance="0" />
    <inkscape:path-effect
       effect="skeletal"
       id="path-effect2090"
       is_visible="true"
       lpeversion="1"
       pattern="m 178.897,58.97966 a 30.396999,12.536 0 0 1 -30.397,12.536 30.396999,12.536 0 0 1 -30.397,-12.536 30.396999,12.536 0 0 1 30.397,-12.536 30.396999,12.536 0 0 1 30.397,12.536 z"
       copytype="single_stretched"
       prop_scale="1"
       scale_y_rel="false"
       spacing="0"
       normal_offset="0"
       tang_offset="0"
       prop_units="false"
       vertical_pattern="false"
       hide_knot="false"
       fuse_tolerance="0" />
    <inkscape:path-effect
       effect="skeletal"
       id="path-effect2057"
       is_visible="true"
       lpeversion="1"
       pattern="m 178.897,58.97966 a 30.396999,12.536 0 0 1 -30.397,12.536 30.396999,12.536 0 0 1 -30.397,-12.536 30.396999,12.536 0 0 1 30.397,-12.536 30.396999,12.536 0 0 1 30.397,12.536 z"
       copytype="single_stretched"
       prop_scale="1"
       scale_y_rel="false"
       spacing="0"
       normal_offset="0"
       tang_offset="0"
       prop_units="false"
       vertical_pattern="false"
       hide_knot="false"
       fuse_tolerance="0" />
    <inkscape:path-effect
       effect="skeletal"
       id="path-effect1991"
       is_visible="true"
       lpeversion="1"
       pattern="m 178.897,58.97966 a 30.396999,12.536 0 0 1 -30.397,12.536 30.396999,12.536 0 0 1 -30.397,-12.536 30.396999,12.536 0 0 1 30.397,-12.536 30.396999,12.536 0 0 1 30.397,12.536 z"
       copytype="single_stretched"
       prop_scale="1"
       scale_y_rel="false"
       spacing="0"
       normal_offset="0"
       tang_offset="0"
       prop_units="false"
       vertical_pattern="false"
       hide_knot="false"
       fuse_tolerance="0" />
    <inkscape:path-effect
       effect="powerstroke"
       id="path-effect1933"
       is_visible="true"
       lpeversion="1"
       offset_points="0,0.1322915"
       sort_points="true"
       interpolator_type="CubicBezierJohan"
       interpolator_beta="0.2"
       start_linecap_type="zerowidth"
       linejoin_type="extrp_arc"
       miter_limit="4"
       scale_width="1"
       end_linecap_type="zerowidth"
       message="" />
    <rect
       x="114.80507"
       y="11.245496"
       width="185.60295"
       height="45.113526"
       id="rect1726" />
    <marker
       style="overflow:visible"
       id="Arrow1Lend-7"
       refX="0"
       refY="0"
       orient="auto"
       inkscape:stockid="Arrow1Lend"
       inkscape:isstock="true">
      <path
         transform="matrix(-0.8,0,0,-0.8,-10,0)"
         style="fill:#000000;fill-opacity:1;fill-rule:evenodd;stroke:#000000;stroke-width:1pt;stroke-opacity:1"
         d="M 0,0 5,-5 -12.5,0 5,5 Z"
         id="path2127-0" />
    </marker>
    <marker
       style="overflow:visible"
       id="Arrow1Lend-7-3"
       refX="0"
       refY="0"
       orient="auto"
       inkscape:stockid="Arrow1Lend"
       inkscape:isstock="true">
      <path
         transform="matrix(-0.8,0,0,-0.8,-10,0)"
         style="fill:#000000;fill-opacity:1;fill-rule:evenodd;stroke:#000000;stroke-width:1pt;stroke-opacity:1"
         d="M 0,0 5,-5 -12.5,0 5,5 Z"
         id="path2127-0-6" />
    </marker>
    <marker
       style="overflow:visible"
       id="Arrow1Lend-7-3-6"
       refX="0"
       refY="0"
       orient="auto"
       inkscape:stockid="Arrow1Lend"
       inkscape:isstock="true">
      <path
         transform="matrix(-0.8,0,0,-0.8,-10,0)"
         style="fill:#000000;fill-opacity:1;fill-rule:evenodd;stroke:#000000;stroke-width:1pt;stroke-opacity:1"
         d="M 0,0 5,-5 -12.5,0 5,5 Z"
         id="path2127-0-6-2" />
    </marker>
    <marker
       style="overflow:visible"
       id="Arrow1Lend-7-3-1"
       refX="0"
       refY="0"
       orient="auto"
       inkscape:stockid="Arrow1Lend"
       inkscape:isstock="true">
      <path
         transform="matrix(-0.8,0,0,-0.8,-10,0)"
         style="fill:#000000;fill-opacity:1;fill-rule:evenodd;stroke:#000000;stroke-width:1pt;stroke-opacity:1"
         d="M 0,0 5,-5 -12.5,0 5,5 Z"
         id="path2127-0-6-8" />
    </marker>
    <marker
       style="overflow:visible"
       id="Arrow1Lend-7-3-1-9"
       refX="0"
       refY="0"
       orient="auto"
       inkscape:stockid="Arrow1Lend"
       inkscape:isstock="true">
      <path
         transform="matrix(-0.8,0,0,-0.8,-10,0)"
         style="fill:#000000;fill-opacity:1;fill-rule:evenodd;stroke:#000000;stroke-width:1pt;stroke-opacity:1"
         d="M 0,0 5,-5 -12.5,0 5,5 Z"
         id="path2127-0-6-8-2" />
    </marker>
    <marker
       style="overflow:visible"
       id="Arrow1Lend-2"
       refX="0"
       refY="0"
       orient="auto"
       inkscape:stockid="Arrow1Lend"
       inkscape:isstock="true">
      <path
         transform="matrix(-0.8,0,0,-0.8,-10,0)"
         style="fill:#000000;fill-opacity:1;fill-rule:evenodd;stroke:#000000;stroke-width:1pt;stroke-opacity:1"
         d="M 0,0 5,-5 -12.5,0 5,5 Z"
         id="path2127-3" />
    </marker>
    <marker
       style="overflow:visible"
       id="Arrow1Lend-7-5"
       refX="0"
       refY="0"
       orient="auto"
       inkscape:stockid="Arrow1Lend"
       inkscape:isstock="true">
      <path
         transform="matrix(-0.8,0,0,-0.8,-10,0)"
         style="fill:#000000;fill-opacity:1;fill-rule:evenodd;stroke:#000000;stroke-width:1pt;stroke-opacity:1"
         d="M 0,0 5,-5 -12.5,0 5,5 Z"
         id="path2127-0-9" />
    </marker>
    <marker
       style="overflow:visible"
       id="Arrow1Lend-7-3-6-2"
       refX="0"
       refY="0"
       orient="auto"
       inkscape:stockid="Arrow1Lend"
       inkscape:isstock="true">
      <path
         transform="matrix(-0.8,0,0,-0.8,-10,0)"
         style="fill:#000000;fill-opacity:1;fill-rule:evenodd;stroke:#000000;stroke-width:1pt;stroke-opacity:1"
         d="M 0,0 5,-5 -12.5,0 5,5 Z"
         id="path2127-0-6-2-8" />
    </marker>
    <marker
       style="overflow:visible"
       id="Arrow1Lend-7-3-7"
       refX="0"
       refY="0"
       orient="auto"
       inkscape:stockid="Arrow1Lend"
       inkscape:isstock="true">
      <path
         transform="matrix(-0.8,0,0,-0.8,-10,0)"
         style="fill:#000000;fill-opacity:1;fill-rule:evenodd;stroke:#000000;stroke-width:1pt;stroke-opacity:1"
         d="M 0,0 5,-5 -12.5,0 5,5 Z"
         id="path2127-0-6-3" />
    </marker>
  </defs>
  <sodipodi:namedview
     id="base"
     pagecolor="#ffffff"
     bordercolor="#666666"
     borderopacity="1.0"
     inkscape:pageopacity="1"
     inkscape:pageshadow="2"
     inkscape:zoom="0.88"
     inkscape:cx="539.20455"
     inkscape:cy="411.36364"
     inkscape:document-units="mm"
     inkscape:current-layer="g2022"
     inkscape:document-rotation="0"
     showgrid="false"
     showguides="true"
     inkscape:guide-bbox="true"
     inkscape:window-width="1600"
     inkscape:window-height="831"
     inkscape:window-x="0"
     inkscape:window-y="0"
     inkscape:window-maximized="1"
     inkscape:showpageshadow="2"
     inkscape:pagecheckerboard="0"
     inkscape:deskcolor="#d1d1d1"
     inkscape:export-bgcolor="#fffffffa" />
  <metadata
     id="metadata5">
    <rdf:RDF>
      <cc:Work
         rdf:about="">
        <dc:format>image/svg+xml</dc:format>
        <dc:type
           rdf:resource="http://purl.org/dc/dcmitype/StillImage" />
        <dc:title />
      </cc:Work>
    </rdf:RDF>
  </metadata>
  <g
     inkscape:label="Layer 1"
     inkscape:groupmode="layer"
     id="layer1">
    <text
       xml:space="preserve"
       id="text1724"
       style="font-style:normal;font-weight:normal;font-size:8.46667px;line-height:1.25;font-family:sans-serif;text-align:center;white-space:pre;shape-inside:url(#rect1726);fill:#000000;fill-opacity:1;stroke:none"
       x="81.568405"
       y="0"
       transform="translate(-59.118846,2.6359022)"><tspan
         x="141.88847"
         y="18.737112"
         id="tspan6"><tspan
           style="text-anchor:middle"
           id="tspan5">Open Models And Open Source
</tspan></tspan><tspan
         x="190.37131"
         y="29.32045"
         id="tspan8"><tspan
           style="text-anchor:middle"
           id="tspan7">Relation</tspan></tspan></text>
    <ellipse
       style="fill:#ffffff;stroke:#000000;stroke-width:0.45477;stroke-miterlimit:4;stroke-dasharray:none;paint-order:fill markers stroke;stop-color:#000000"
       id="path1722-3-3"
       cx="266.34344"
       cy="108.51673"
       rx="24.333876"
       ry="10.706234" />
    <g
       id="g1887"
       transform="translate(0,0.29244016)">
      <ellipse
         style="fill:#ffffff;stroke:#000000;stroke-width:0.45477;stroke-miterlimit:4;stroke-dasharray:none;paint-order:fill markers stroke;stop-color:#000000"
         id="path1722-3"
         cx="30.65657"
         cy="108.22429"
         rx="24.333876"
         ry="10.706234" />
      <text
         xml:space="preserve"
         style="font-style:normal;font-weight:normal;font-size:5.82083px;line-height:1.25;font-family:sans-serif;fill:#000000;fill-opacity:1;stroke:none;stroke-width:0.264583"
         x="7.552309"
         y="109.83013"
         id="text1841"><tspan
           sodipodi:role="line"
           id="tspan1839"
           x="7.552309"
           y="109.83013"
           style="font-size:5.82083px;stroke-width:0.264583">Open Education</tspan></text>
    </g>
    <g
       id="g1892"
       transform="translate(0,0.29244016)">
      <ellipse
         style="fill:#ffffff;stroke:#000000;stroke-width:0.45477;stroke-miterlimit:4;stroke-dasharray:none;paint-order:fill markers stroke;stop-color:#000000"
         id="path1722-3-6"
         cx="89.578278"
         cy="108.22429"
         rx="24.333876"
         ry="10.706234" />
      <text
         xml:space="preserve"
         style="font-style:normal;font-weight:normal;font-size:5.82083px;line-height:1.25;font-family:sans-serif;fill:#000000;fill-opacity:1;stroke:none;stroke-width:0.264583"
         x="69.589073"
         y="109.83013"
         id="text1845"><tspan
           sodipodi:role="line"
           id="tspan1843"
           x="69.589073"
           y="109.83013"
           style="font-size:5.82083px;stroke-width:0.264583">Open Science</tspan></text>
    </g>
    <g
       id="g1897"
       transform="translate(0,0.29244016)">
      <ellipse
         style="fill:#ffffff;stroke:#000000;stroke-width:0.45477;stroke-miterlimit:4;stroke-dasharray:none;paint-order:fill markers stroke;stop-color:#000000"
         id="path1722-3-7"
         cx="148.5"
         cy="108.22429"
         rx="24.333876"
         ry="10.706234" />
      <text
         xml:space="preserve"
         style="font-style:normal;font-weight:normal;font-size:5.82083px;line-height:1.25;font-family:sans-serif;fill:#000000;fill-opacity:1;stroke:none;stroke-width:0.264583"
         x="126.96321"
         y="109.83013"
         id="text1849"><tspan
           sodipodi:role="line"
           id="tspan1847"
           x="126.96321"
           y="109.83013"
           style="font-size:5.82083px;stroke-width:0.264583">Open Software</tspan></text>
    </g>
    <g
       id="g1902"
       transform="translate(0,0.29244016)">
      <ellipse
         style="fill:#ffffff;stroke:#000000;stroke-width:0.45477;stroke-miterlimit:4;stroke-dasharray:none;paint-order:fill markers stroke;stop-color:#000000"
         id="path1722-3-5"
         cx="207.42169"
         cy="108.22429"
         rx="24.333876"
         ry="10.706234" />
      <text
         xml:space="preserve"
         style="font-style:normal;font-weight:normal;font-size:5.82083px;line-height:1.25;font-family:sans-serif;fill:#000000;fill-opacity:1;stroke:none;stroke-width:0.264583"
         x="184.66277"
         y="109.83013"
         id="text1853"><tspan
           sodipodi:role="line"
           id="tspan1851"
           x="184.66277"
           y="109.83013"
           style="font-size:5.82083px;stroke-width:0.264583">Open Hardware</tspan></text>
    </g>
    <text
       xml:space="preserve"
       style="font-style:normal;font-weight:normal;font-size:5.82083px;line-height:1.25;font-family:sans-serif;fill:#000000;fill-opacity:1;stroke:none;stroke-width:0.264583"
       x="250.7966"
       y="110.07142"
       id="text1857"><tspan
         sodipodi:role="line"
         id="tspan1855"
         x="250.7966"
         y="110.07142"
         style="font-size:5.82083px;stroke-width:0.264583">Open Data</tspan></text>
    <g
       id="g2027">
      <ellipse
         style="fill:#ffffff;stroke:#000000;stroke-width:0.455;stroke-miterlimit:4;stroke-dasharray:none;paint-order:fill markers stroke;stop-color:#000000"
         id="path1722"
         cx="148.5"
         cy="58.97966"
         rx="30.396999"
         ry="12.536" />
      <text
         xml:space="preserve"
         style="font-style:normal;font-weight:normal;font-size:5.82083px;line-height:1.25;font-family:sans-serif;fill:#000000;fill-opacity:1;stroke:none;stroke-width:0.264583"
         x="129.52547"
         y="60.585503"
         id="text1837"><tspan
           sodipodi:role="line"
           id="tspan1835"
           x="129.52547"
           y="60.585503"
           style="font-size:5.82083px;stroke-width:0.264583">Open Models</tspan></text>
    </g>
    <g
       id="g2022"
       style="stroke-width:1;stroke-miterlimit:4;stroke-dasharray:none">
      <ellipse
         style="fill:#ffffff;stroke:#000000;stroke-width:0.455;stroke-miterlimit:4;stroke-dasharray:none;paint-order:fill markers stroke;stop-color:#000000"
         id="path1722-5"
         cx="148.5"
         cy="158.0538"
         rx="30.33098"
         ry="19.319458" />
      <text
         xml:space="preserve"
         style="font-style:normal;font-weight:normal;font-size:5.82083px;line-height:1.25;font-family:sans-serif;text-align:center;text-anchor:middle;fill:#000000;fill-opacity:1;stroke:none;stroke-width:1;stroke-miterlimit:4;stroke-dasharray:none"
         x="147.95134"
         y="149.16516"
         id="text1876"><tspan
           sodipodi:role="line"
           id="tspan1874"
           x="147.95134"
           y="149.16516"
           style="font-size:5.82083px;text-align:center;text-anchor:middle;stroke-width:1;stroke-miterlimit:4;stroke-dasharray:none">Open Source</tspan><tspan
           sodipodi:role="line"
           x="147.95134"
           y="156.44119"
           style="font-size:5.82083px;text-align:center;text-anchor:middle;stroke-width:1;stroke-miterlimit:4;stroke-dasharray:none"
           id="tspan1878">or</tspan><tspan
           sodipodi:role="line"
           x="147.95134"
           y="163.71724"
           style="font-size:5.82083px;text-align:center;text-anchor:middle;stroke-width:1;stroke-miterlimit:4;stroke-dasharray:none"
           id="tspan1880">Open Access</tspan><tspan
           sodipodi:role="line"
           x="147.95134"
           y="170.99327"
           style="font-size:5.82083px;text-align:center;text-anchor:middle;stroke-width:1;stroke-miterlimit:4;stroke-dasharray:none"
           id="tspan1882">Resources</tspan></text>
      <path
         style="fill:none;stroke:#000000;stroke-width:0.365;stroke-linecap:butt;stroke-linejoin:miter;stroke-miterlimit:4;stroke-dasharray:none;stroke-opacity:1;marker-end:url(#Arrow1Lend)"
         d="M 118.60681,61.660554 45.661999,99.31858"
         id="path2435"
         sodipodi:nodetypes="cc" />
      <path
         style="fill:none;stroke:#000000;stroke-width:0.365;stroke-linecap:butt;stroke-linejoin:miter;stroke-miterlimit:4;stroke-dasharray:none;stroke-opacity:1;marker-end:url(#Arrow1Lend-7)"
         d="m 178.08511,62.084129 76.31786,36.198169"
         id="path2435-9"
         sodipodi:nodetypes="cc" />
      <path
         style="fill:none;stroke:#000000;stroke-width:0.365;stroke-linecap:butt;stroke-linejoin:miter;stroke-miterlimit:4;stroke-dasharray:none;stroke-opacity:1;marker-end:url(#Arrow1Lend-7-3)"
         d="m 169.41207,67.662559 20.2689,33.294891"
         id="path2435-9-0"
         sodipodi:nodetypes="cc" />
      <path
         style="fill:none;stroke:#000000;stroke-width:0.365;stroke-linecap:butt;stroke-linejoin:miter;stroke-miterlimit:4;stroke-dasharray:none;stroke-opacity:1;marker-end:url(#Arrow1Lend-7-3-6)"
         d="M 126.06304,67.588152 105.56159,99.000377"
         id="path2435-9-0-6"
         sodipodi:nodetypes="cc" />
      <path
         style="fill:none;stroke:#000000;stroke-width:0.365;stroke-linecap:butt;stroke-linejoin:miter;stroke-miterlimit:4;stroke-dasharray:none;stroke-opacity:1;marker-end:url(#Arrow1Lend-7-3-1)"
         d="m 147.43109,71.823457 0.20553,25.10888"
         id="path2435-9-0-7"
         sodipodi:nodetypes="cc" />
      <path
         style="fill:none;stroke:#000000;stroke-width:0.365;stroke-linecap:butt;stroke-linejoin:miter;stroke-miterlimit:4;stroke-dasharray:none;stroke-opacity:1;marker-end:url(#Arrow1Lend-7-3-1-9)"
         d="m 148.14056,119.28559 -0.34764,19.01346"
         id="path2435-9-0-7-0"
         sodipodi:nodetypes="cc" />
      <path
         style="fill:none;stroke:#000000;stroke-width:0.365;stroke-linecap:butt;stroke-linejoin:miter;stroke-miterlimit:4;stroke-dasharray:none;stroke-opacity:1;marker-end:url(#Arrow1Lend-2)"
         d="m 251.48392,116.88735 -72.94481,37.65803"
         id="path2435-7"
         sodipodi:nodetypes="cc" />
      <path
         style="fill:none;stroke:#000000;stroke-width:0.365;stroke-linecap:butt;stroke-linejoin:miter;stroke-miterlimit:4;stroke-dasharray:none;stroke-opacity:1;marker-end:url(#Arrow1Lend-7-5)"
         d="m 41.620288,118.19516 76.317862,36.19822"
         id="path2435-9-2"
         sodipodi:nodetypes="cc" />
      <path
         style="fill:none;stroke:#000000;stroke-width:0.365;stroke-linecap:butt;stroke-linejoin:miter;stroke-miterlimit:4;stroke-dasharray:none;stroke-opacity:1;marker-end:url(#Arrow1Lend-7-3-6-2)"
         d="M 195.86748,117.92088 175.36603,149.3331"
         id="path2435-9-0-6-9"
         sodipodi:nodetypes="cc" />
      <path
         style="fill:none;stroke:#000000;stroke-width:0.365;stroke-linecap:butt;stroke-linejoin:miter;stroke-miterlimit:4;stroke-dasharray:none;stroke-opacity:1;marker-end:url(#Arrow1Lend-7-3-7)"
         d="m 101.2839,117.76418 20.57896,30.35638"
         id="path2435-9-0-61"
         sodipodi:nodetypes="cc" />
      <g
         id="surface1"
         transform="matrix(0.26458333,0,0,0.26458333,261.97917,190.62698)">
        <path
           style="fill:#a8b0ab;fill-opacity:1;fill-rule:nonzero;stroke:none"
           d="M 2.300781,0.570313 85.429688,0.71875 c 1.160156,0 2.199218,-0.171875 2.199218,2.320313 l -0.101562,27.375 H 0.203125 V 2.9375 c 0,-1.230469 0.121094,-2.367187 2.097656,-2.367187 z"
           id="path4157" />
        <path
           style="fill:#000000;fill-opacity:1;fill-rule:nonzero;stroke:none"
           d="M 86.351563,0.199219 H 1.648438 C 0.738281,0.199219 0,0.9375 0,1.847656 v 28.78125 C 0,30.832031 0.167969,31 0.371094,31 H 87.628906 C 87.832031,31 88,30.832031 88,30.628906 V 1.847656 C 88,0.9375 87.261719,0.199219 86.351563,0.199219 Z M 1.648438,0.945313 h 84.703125 c 0.5,0 0.902343,0.402343 0.902343,0.902343 0,0 0,11.621094 0,20.003907 H 26.515625 c -2.21875,4.011718 -6.492187,6.734375 -11.398437,6.734375 -4.910157,0 -9.183594,-2.722657 -11.402344,-6.734375 h -2.96875 c 0,-8.382813 0,-20.003907 0,-20.003907 0,-0.5 0.402344,-0.902343 0.902344,-0.902343 z"
           id="path4159" />
        <path
           style="fill:#ffffff;fill-opacity:1;fill-rule:nonzero;stroke:none"
           d="m 46.753906,23.984375 h 4.078125 v 0.753906 l -2.601562,3.148438 h 2.675781 v 0.945312 h -4.226562 v -0.757812 l 2.601562,-3.148438 h -2.527344 v -0.941406 m 5.058594,0 h 3.371094 v 0.941406 H 53.0625 v 0.90625 h 1.996094 v 0.941407 H 53.0625 v 1.113281 h 2.191406 v 0.945312 H 51.8125 v -4.847656 m 6.320313,2.148438 c 0.261718,0 0.449218,-0.05078 0.5625,-0.148438 0.113281,-0.09375 0.171875,-0.253906 0.171875,-0.480469 0,-0.21875 -0.05859,-0.378906 -0.171875,-0.472656 -0.113282,-0.09375 -0.300782,-0.140625 -0.5625,-0.140625 h -0.527344 v 1.242188 h 0.527344 m -0.527344,0.863281 v 1.835937 h -1.25 v -4.847656 h 1.910156 c 0.636719,0 1.105469,0.105469 1.402344,0.320313 0.296875,0.214843 0.449219,0.550781 0.449219,1.015625 0,0.320312 -0.07813,0.582031 -0.234375,0.789062 -0.152344,0.207031 -0.386719,0.355469 -0.699219,0.453125 0.171875,0.03906 0.324219,0.128906 0.457031,0.269531 0.136719,0.132813 0.273438,0.34375 0.414063,0.621094 l 0.679687,1.378906 H 59.402344 L 58.8125,27.625 c -0.121094,-0.242187 -0.242187,-0.40625 -0.367187,-0.496094 -0.121094,-0.08984 -0.28125,-0.132812 -0.484375,-0.132812 H 57.605469 M 63.6875,24.800781 c -0.382812,0 -0.675781,0.140625 -0.886719,0.421875 -0.210937,0.28125 -0.316406,0.679688 -0.316406,1.1875 0,0.511719 0.105469,0.90625 0.316406,1.1875 0.210938,0.28125 0.503907,0.421875 0.886719,0.421875 0.382813,0 0.679688,-0.140625 0.890625,-0.421875 0.207031,-0.28125 0.3125,-0.675781 0.3125,-1.1875 0,-0.507812 -0.105469,-0.90625 -0.3125,-1.1875 -0.210937,-0.28125 -0.507812,-0.421875 -0.890625,-0.421875 m 0,-0.90625 c 0.777344,0 1.390625,0.222657 1.832031,0.667969 0.441407,0.449219 0.660157,1.0625 0.660157,1.847656 0,0.785157 -0.21875,1.398438 -0.660157,1.84375 -0.441406,0.449219 -1.054687,0.671875 -1.832031,0.671875 -0.777344,0 -1.386719,-0.222656 -1.832031,-0.671875 -0.441406,-0.445312 -0.660156,-1.058593 -0.660156,-1.84375 0,-0.785156 0.21875,-1.398437 0.660156,-1.847656 0.445312,-0.445312 1.054687,-0.667969 1.832031,-0.667969"
           id="path4161" />
        <path
           style="fill:#ffffff;fill-opacity:1;fill-rule:nonzero;stroke:none"
           d="m 25.121094,14.578125 c 0.0039,5.519531 -4.472656,10 -9.996094,10.003906 -5.519531,0.0039 -10,-4.46875 -10.003906,-9.992187 0,-0.0039 0,-0.0078 0,-0.01172 -0.00391,-5.523437 4.472656,-10 9.992187,-10.003906 5.523438,-0.00391 10.003907,4.46875 10.007813,9.992187 0,0.0039 0,0.0078 0,0.01172 z"
           id="path4163" />
        <path
           style="fill:#000000;fill-opacity:1;fill-rule:nonzero;stroke:none"
           d="m 23.25,6.433594 c 2.214844,2.21875 3.324219,4.933594 3.324219,8.144531 0,3.210938 -1.089844,5.898438 -3.269531,8.058594 -2.3125,2.273437 -5.042969,3.410156 -8.199219,3.410156 -3.113281,0 -5.800781,-1.125 -8.054688,-3.382812 -2.257812,-2.253907 -3.382812,-4.949219 -3.382812,-8.085938 0,-3.136719 1.125,-5.851562 3.382812,-8.144531 2.195313,-2.21875 4.882813,-3.324219 8.054688,-3.324219 3.210937,0 5.925781,1.105469 8.144531,3.324219 z M 8.542969,7.925781 c -1.875,1.894532 -2.8125,4.109375 -2.8125,6.65625 0,2.542969 0.929687,4.742188 2.78125,6.59375 1.855469,1.855469 4.066406,2.785157 6.628906,2.785157 2.5625,0 4.789063,-0.9375 6.683594,-2.8125 1.796875,-1.738282 2.695312,-3.929688 2.695312,-6.566407 0,-2.621093 -0.914062,-4.84375 -2.738281,-6.671875 -1.828125,-1.824218 -4.039062,-2.738281 -6.640625,-2.738281 -2.601562,0 -4.800781,0.917969 -6.597656,2.753906 z m 4.933594,5.535157 c -0.289063,-0.625 -0.714844,-0.9375 -1.289063,-0.9375 -1.011719,0 -1.515625,0.683593 -1.515625,2.042968 0,1.359375 0.503906,2.039063 1.515625,2.039063 0.667969,0 1.144531,-0.328125 1.429688,-0.992188 l 1.402343,0.746094 c -0.667968,1.183594 -1.667968,1.777344 -3.003906,1.777344 -1.03125,0 -1.859375,-0.3125 -2.476562,-0.945313 C 8.917969,16.558594 8.609375,15.6875 8.609375,14.578125 c 0,-1.089844 0.316406,-1.957031 0.957031,-2.597656 0.640625,-0.644531 1.4375,-0.964844 2.390625,-0.964844 1.414063,0 2.421875,0.558594 3.035157,1.671875 z m 6.589843,0 c -0.285156,-0.625 -0.707031,-0.9375 -1.257812,-0.9375 -1.03125,0 -1.546875,0.683593 -1.546875,2.042968 0,1.359375 0.515625,2.039063 1.546875,2.039063 0.667969,0 1.136719,-0.328125 1.402344,-0.992188 l 1.433593,0.746094 c -0.667968,1.183594 -1.667968,1.777344 -3,1.777344 -1.03125,0 -1.855468,-0.3125 -2.472656,-0.945313 -0.621094,-0.632812 -0.929687,-1.503906 -0.929687,-2.613281 0,-1.089844 0.3125,-1.957031 0.941406,-2.597656 0.628906,-0.644531 1.429687,-0.964844 2.402344,-0.964844 1.410156,0 2.417968,0.558594 3.027343,1.671875 z"
           id="path4165" />
        <path
           style="fill:#ffffff;fill-opacity:1;fill-rule:nonzero;stroke:none"
           d="m 60.03125,10.878906 c 0,4.25 -1.722656,7.699219 -3.847656,7.699219 -2.128906,0 -3.851563,-3.449219 -3.851563,-7.699219 0,-4.253906 1.722657,-7.699218 3.851563,-7.699218 2.125,0 3.847656,3.445312 3.847656,7.699218 z"
           id="path4167" />
        <path
           style="fill:#000000;fill-opacity:1;fill-rule:nonzero;stroke:none"
           d="m 56.429688,2.417969 c -4.847657,0 -6.070313,4.578125 -6.070313,8.457031 0,3.882813 1.222656,8.457031 6.070313,8.457031 C 61.28125,19.332031 62.5,14.757813 62.5,10.875 62.5,6.996094 61.28125,2.417969 56.429688,2.417969 Z m 0,3.191406 c 0.199218,0 0.378906,0.027344 0.546875,0.070313 0.347656,0.300781 0.519531,0.714843 0.183593,1.296875 l -3.230468,5.9375 c -0.09766,-0.753907 -0.113282,-1.488282 -0.113282,-2.039063 0,-1.707031 0.121094,-5.265625 2.613282,-5.265625 z m 2.417968,2.734375 c 0.171875,0.914063 0.195313,1.863281 0.195313,2.53125 0,1.710938 -0.117188,5.269531 -2.613281,5.269531 -0.195313,0 -0.375,-0.01953 -0.542969,-0.0625 -0.03516,-0.0078 -0.0625,-0.01953 -0.09375,-0.03125 C 55.742188,16.035156 55.6875,16.019531 55.640625,16 55.082031,15.765625 54.734375,15.335938 55.238281,14.582031 Z"
           id="path4169" />
      </g>
    </g>
  </g>
</svg>
